<svg width="24" height="24" viewBox="0 0 24 24" fill="none" xmlns="http://www.w3.org/2000/svg">
<rect x="7" y="12" width="4" height="9" fill="#FF4343"/>
<rect width="4" height="9" transform="matrix(-1 0 0 1 17 12)" fill="#FF4343"/>
<rect x="7" y="14" width="2" height="9" fill="#FF4343"/>
<rect width="2" height="9" transform="matrix(-1 0 0 1 17 14)" fill="#FF4343"/>
<rect x="8" y="13" width="4" height="7" fill="#FF4343"/>
<rect width="4" height="7" transform="matrix(-1 0 0 1 16 13)" fill="#FF4343"/>
<rect x="5" y="6" width="14" height="6" fill="#FFBE16"/>
<rect x="9" y="2" width="6" height="14" fill="#FFBE16"/>
<rect x="7" y="4" width="10" height="10" fill="#FFBE16"/>
<rect x="15" y="4" width="2" height="2" fill="#FBFF24"/>
<rect x="13" y="2" width="2" height="2" fill="#FBFF24"/>
<rect x="13" y="4" width="2" height="2" fill="#FBFF24"/>
<rect x="11" y="4" width="2" height="2" fill="#FBFF24"/>
<rect x="13" y="6" width="2" height="2" fill="#FBFF24"/>
<rect x="11" y="6" width="2" height="2" fill="#FBFF24"/>
<rect x="9" y="6" width="2" height="2" fill="#FBFF24"/>
<rect x="11" y="8" width="2" height="2" fill="#FBFF24"/>
<rect x="9" y="8" width="2" height="2" fill="#FBFF24"/>
<rect x="9" y="10" width="2" height="2" fill="#FBFF24"/>
<rect x="7" y="8" width="2" height="2" fill="#FBFF24"/>
<rect x="7" y="10" width="2" height="2" fill="#FBFF24"/>
<rect x="7" y="12" width="2" height="2" fill="#FBFF24"/>
<rect x="7" y="14" width="2" height="2" fill="#CF1C1C"/>
<rect x="15" y="14" width="2" height="2" fill="#CF1C1C"/>
<rect x="14" y="11" width="2" height="2" fill="#FF9900"/>
<rect x="10" y="13" width="4" height="2" fill="#FF9900"/>
<rect x="16" y="7" width="2" height="4" fill="#FF9900"/>
<rect x="9" y="16" width="6" height="2" fill="#CF1C1C"/>
<rect x="5" y="10" width="2" height="2" fill="#FBFF24"/>
</svg>
