<?xml version="1.0" encoding="utf-8"?>
<!-- Generator: Adobe Illustrator 28.0.0, SVG Export Plug-In . SVG Version: 6.00 Build 0)  -->
<svg version="1.1" id="Layer_1" xmlns="http://www.w3.org/2000/svg" xmlns:xlink="http://www.w3.org/1999/xlink" x="0px" y="0px"
	 viewBox="0 0 32 32" style="enable-background:new 0 0 32 32;" xml:space="preserve">
<style type="text/css">
	.st0{fill:#A915FF;}
</style>
<path class="st0" d="M30.51,8.58h-0.09V8.49V8.4V8.31V8.22h-0.09h-0.09V8.13V8.05h-0.09h-0.09V7.96V7.87h-0.09H29.9V7.78V7.69h-0.09
	h-0.09h-0.09h-0.09V7.6V7.52h-0.09h-0.09h-0.09h-0.09h-0.09h-0.09h-0.09h-0.09h-0.09h-0.09V7.6v0.09H28.6h-0.09h-0.09h-0.09v0.09
	v0.09h-0.09h-0.09v0.09v0.09h-0.09h-0.09v0.09v0.09H27.9h-0.09v0.09V8.4v0.09v0.09h-0.09h-0.09v0.09v0.09v0.09v0.09v0.09v0.09h-0.09
	h-0.09v0.09v0.09v0.09v0.09h-0.09h-0.09v0.09v0.09v0.09v0.09h-0.09h-0.09V9.9v0.09v0.09v0.09h-0.09h-0.09v0.09v0.09h-0.09h-0.09
	v0.09v0.09v0.09v0.09h-0.09H26.6v0.09v0.09v0.09v0.09h-0.09h-0.09v0.09v0.09v0.09v0.09h-0.09h-0.09v0.09v0.09v0.09v0.09h-0.09h-0.09
	v0.09v0.09v0.09v0.09h-0.09H25.9v0.09v0.09h-0.09h-0.09v0.09v0.09v0.09v0.09h-0.09h-0.09v0.09v0.09h-0.09h-0.09v0.09v0.09v0.09v0.09
	H25.3h-0.09v0.09v0.09h-0.09h-0.09v0.09v0.09v0.09v0.09h-0.09h-0.09v0.09v0.09h-0.09h-0.09v0.09v0.09v0.09v0.09H24.6h-0.09v0.09
	v0.09h-0.09h-0.09v0.09v0.09v0.09v0.09h-0.09h-0.09v0.09v0.09h-0.09h-0.09v0.09v0.09H23.9h-0.09v0.09v0.09v0.09v0.09h-0.09h-0.09
	v0.09v0.09h-0.09h-0.09v0.09v0.09v0.09v0.09h-0.09H23.3v0.09v0.09h-0.09h-0.09v0.09v0.09h-0.09h-0.09v0.09v0.09v0.09v0.09h-0.09
	h-0.09v0.09v0.09h-0.09H22.6v0.09v0.09h-0.09h-0.09v0.09v0.09v0.09v0.09h-0.09h-0.09v0.09v0.09h-0.09h-0.09v0.09v0.09h-0.09h-0.09
	v0.09v0.09v0.09v0.09h-0.09h-0.09v0.09v0.09h-0.09h-0.09v0.09v0.09v0.09v0.09h-0.09h-0.09v0.09v0.09H21.3h-0.09v0.09V19v0.09v0.09
	h-0.09h-0.09v0.09v0.09h-0.09h-0.09v0.09v0.09v0.09v0.09h-0.09h-0.09v0.09v0.09H20.6h-0.09v0.09v0.09v0.09v0.09h-0.09h-0.09v0.09
	v0.09h-0.09h-0.09v0.09v0.09v0.09v0.09h-0.09h-0.09v0.09v0.09h-0.09h-0.09v0.09v0.09v0.09v0.09h-0.09h-0.09v0.09v0.09v0.09v0.09
	h-0.09h-0.09v0.09v0.09v0.09V22h-0.09H19.3v0.09v0.09v0.09v0.09v0.09v0.09h-0.09h-0.09v0.09v0.09v0.09v0.09v0.09v0.09h-0.09h-0.09
	v0.09v0.09v0.09v0.09v0.09v0.09v0.09v0.09v0.09v0.09v0.09v0.09h0.09h0.09v0.09v0.09h0.09h0.09v0.09v0.09v0.09v0.09h0.09h0.09h0.09
	h0.09v0.09v0.09h0.09h0.09h0.09h0.09v0.09V25h0.09h0.09h0.09h0.09h0.09h0.09h0.09h0.09h0.09h0.09v-0.09v-0.09h0.09h0.09h0.09h0.09
	v-0.09v-0.09h0.09h0.09v-0.09v-0.09h0.09h0.09v-0.09v-0.09h0.09h0.09v-0.09v-0.09v-0.09v-0.09h0.09h0.09v-0.09v-0.09v-0.09v-0.09
	V23.5v-0.09h0.09h0.09v-0.09v-0.09v-0.09v-0.09h0.09h0.09v-0.09v-0.09v-0.09V22.7h0.09h0.09v-0.09v-0.09v-0.09v-0.09h0.09h0.09
	v-0.09v-0.09v-0.09V22h0.09h0.09v-0.09v-0.09h0.09h0.09v-0.09v-0.09v-0.09v-0.09h0.09h0.09v-0.09v-0.09h0.09h0.09V21.2v-0.09v-0.09
	v-0.09h0.09h0.09v-0.09v-0.09h0.09h0.09v-0.09v-0.09V20.5v-0.09h0.09h0.09v-0.09v-0.09h0.09h0.09v-0.09v-0.09v-0.09v-0.09h0.09h0.09
	v-0.09V19.7h0.09h0.09v-0.09v-0.09v-0.09v-0.09h0.09h0.09v-0.09v-0.09h0.09h0.09v-0.09V19h0.09h0.09v-0.09v-0.09v-0.09v-0.09h0.09
	h0.09v-0.09v-0.09h0.09h0.09v-0.09v-0.09h0.09h0.09V18.2v-0.09h0.09h0.09v-0.09v-0.09v-0.09v-0.09h0.09h0.09v-0.09v-0.09h0.09h0.09
	v-0.09v-0.09v-0.09v-0.09h0.09h0.09v-0.09v-0.09h0.09h0.09v-0.09v-0.09h0.09h0.09v-0.09V16.7v-0.09v-0.09h0.09h0.09v-0.09v-0.09
	h0.09h0.09v-0.09v-0.09v-0.09v-0.09h0.09h0.09V15.9v-0.09h0.09h0.09v-0.09v-0.09v-0.09v-0.09h0.09h0.09v-0.09v-0.09h0.09h0.09V15.2
	v-0.09v-0.09v-0.09h0.09h0.09v-0.09v-0.09v-0.09v-0.09h0.09h0.09v-0.09V14.4h0.09h0.09v-0.09v-0.09h0.09h0.09v-0.09v-0.09v-0.09
	v-0.09h0.09h0.09v-0.09V13.7h0.09h0.09v-0.09v-0.09v-0.09v-0.09h0.09h0.09v-0.09v-0.09v-0.09v-0.09h0.09h0.09V12.9v-0.09v-0.09
	v-0.09h0.09h0.09v-0.09v-0.09h0.09h0.09v-0.09v-0.09V12.2v-0.09h0.09h0.09v-0.09v-0.09v-0.09v-0.09h0.09h0.09v-0.09v-0.09v-0.09
	V11.4h0.09h0.09v-0.09v-0.09v-0.09v-0.09h0.09h0.09v-0.09v-0.09v-0.09V10.7h0.09h0.09v-0.09v-0.09v-0.09v-0.09h0.09h0.09v-0.09
	v-0.09v-0.09V9.99V9.9V9.81h0.09h0.09V9.72V9.64V9.55V9.46h0.09h0.09V9.37V9.28V9.19V9.11V9.02V8.93V8.84V8.75V8.66V8.58H30.51z"/>
<path class="st0" d="M18.95,18.2v-0.09v-0.09v-0.09v-0.09v-0.09v-0.09v-0.09v-0.09v-0.09v-0.09v-0.09v-0.09v-0.09v-0.09v-0.09v-0.09
	V16.7v-0.09v-0.09v-0.09v-0.09v-0.09v-0.09h-0.09h-0.09v-0.09v-0.09V15.9v-0.09v-0.09v-0.09h-0.09H18.6v-0.09v-0.09v-0.09v-0.09
	h-0.09h-0.09V15.2v-0.09v-0.09v-0.09h-0.09h-0.09v-0.09v-0.09h-0.09h-0.09v-0.09v-0.09h-0.09h-0.09v-0.09V14.4h-0.09h-0.09v-0.09
	v-0.09h-0.09h-0.09v-0.09v-0.09h-0.09h-0.09v-0.09v-0.09H17.3h-0.09v-0.09V13.7h-0.09h-0.09h-0.09h-0.09v-0.09v-0.09h-0.09h-0.09
	H16.6h-0.09v-0.09v-0.09h-0.09h-0.09h-0.09h-0.09v-0.09v-0.09h-0.09H16h-0.09h-0.09h-0.09h-0.09h-0.09h-0.09h-0.09H15.3h-0.09h-0.09
	h-0.09h-0.09h-0.09h-0.09h-0.09H14.6h-0.09h-0.09h-0.09h-0.09h-0.09h-0.09H14h-0.09h-0.09h-0.09h-0.09h-0.09h-0.09h-0.09v0.09v0.09
	H13.3h-0.09h-0.09h-0.09h-0.09h-0.09v0.09v0.09h-0.09h-0.09h-0.09h-0.09v0.09v0.09h-0.09h-0.09h-0.09h-0.09v0.09v0.09h-0.09H12
	h-0.09h-0.09v0.09v0.09h-0.09h-0.09v0.09v0.09h-0.09h-0.09v0.09v0.09h-0.09H11.3v0.09v0.09h-0.09h-0.09v0.09v0.09h-0.09h-0.09v0.09
	v0.09h-0.09h-0.09v0.09v0.09h-0.09h-0.09v0.09v0.09h-0.09h-0.09v0.09v0.09h-0.09h-0.09v0.09v0.09h-0.09h-0.09v0.09v0.09H10H9.91
	v0.09v0.09H9.82H9.74v0.09v0.09H9.65H9.56v0.09v0.09H9.48H9.39v0.09v0.09H9.3H9.22v0.09v0.09v0.09v0.09H9.13H9.04v0.09v0.09H8.96
	H8.87v0.09v0.09H8.78H8.69v0.09v0.09H8.61H8.52v0.09v0.09H8.43H8.35v0.09v0.09H8.26H8.17v0.09v0.09H8.09H8v0.09v0.09H7.91H7.83v0.09
	v0.09H7.74H7.65v0.09v0.09H7.56H7.48v0.09v0.09H7.39H7.3H7.22H7.13v0.09v0.09H7.04H6.96v0.09V19H6.87H6.78H6.7H6.61v0.09v0.09H6.52
	H6.43H6.35H6.26H6.17H6.09H6H5.91H5.83H5.74H5.65H5.57H5.48H5.39v-0.09V19H5.3H5.22v-0.09v-0.09H5.13H5.04v-0.09v-0.09H4.96H4.87
	v-0.09v-0.09H4.78H4.7v-0.09v-0.09V18.2v-0.09H4.61H4.52v-0.09v-0.09v-0.09v-0.09v-0.09v-0.09v-0.09v-0.09v-0.09v-0.09v-0.09v-0.09
	v-0.09v-0.09v-0.09V16.7h0.09H4.7v-0.09v-0.09v-0.09v-0.09v-0.09v-0.09h0.09h0.09v-0.09v-0.09V15.9v-0.09h0.09h0.09v-0.09v-0.09
	v-0.09v-0.09h0.09h0.09v-0.09v-0.09V15.2v-0.09H5.3h0.09v-0.09v-0.09v-0.09v-0.09h0.09h0.09v-0.09v-0.09h0.09h0.09v-0.09V14.4v-0.09
	v-0.09h0.09h0.09v-0.09v-0.09H6h0.09v-0.09v-0.09h0.09h0.09v-0.09V13.7h0.09h0.09v-0.09v-0.09v-0.09v-0.09h0.09h0.09v-0.09v-0.09
	H6.7h0.09v-0.09v-0.09h0.09h0.09V12.9v-0.09h0.09h0.09h0.09H7.3v-0.09v-0.09h0.09h0.09v-0.09v-0.09h0.09h0.09v-0.09v-0.09h0.09h0.09
	V12.2v-0.09h0.09H8h0.09h0.09v-0.09v-0.09h0.09h0.09v-0.09v-0.09h0.09h0.09h0.09h0.09v-0.09v-0.09h0.09h0.09h0.09h0.09v-0.09V11.4
	h0.09h0.09H9.3h0.09v-0.09v-0.09h0.09h0.09h0.09h0.09v-0.09v-0.09h0.09h0.09H10h0.09h0.09h0.09v-0.09v-0.09h0.09h0.09h0.09h0.09
	h0.09h0.09v-0.09V10.7h0.09h0.09h0.09h0.09h0.09h0.09h0.09h0.09h0.09h0.09v-0.09v-0.09h0.09h0.09h0.09H12h0.09h0.09h0.09h0.09h0.09
	h0.09h0.09h0.09h0.09h0.09h0.09h0.09h0.09h0.09h0.09h0.09h0.09h0.09h0.09h0.09h0.09h0.09v-0.09v-0.09H14h0.09h0.09h0.09v-0.09v-0.09
	h0.09h0.09v-0.09V9.99h0.09h0.09V9.9V9.81h0.09h0.09V9.72V9.64V9.55V9.46h0.09h0.09V9.37V9.28V9.19V9.11V9.02V8.93V8.84V8.75V8.66
	V8.58h-0.09h-0.09V8.49V8.4V8.31V8.22h-0.09H14.6V8.13V8.05h-0.09h-0.09V7.96V7.87h-0.09h-0.09V7.78V7.69h-0.09h-0.09H14h-0.09V7.6
	V7.52h-0.09h-0.09h-0.09h-0.09h-0.09h-0.09H13.3h-0.09h-0.09h-0.09h-0.09h-0.09h-0.09h-0.09h-0.09h-0.09h-0.09h-0.09h-0.09h-0.09
	h-0.09H12h-0.09h-0.09h-0.09h-0.09V7.6v0.09h-0.09h-0.09h-0.09H11.3h-0.09h-0.09h-0.09h-0.09h-0.09h-0.09h-0.09h-0.09v0.09v0.09
	h-0.09h-0.09h-0.09h-0.09h-0.09h-0.09H10H9.91v0.09v0.09H9.82H9.74H9.65H9.56H9.48H9.39H9.3H9.22v0.09v0.09H9.13H9.04H8.96H8.87
	H8.78H8.69v0.09V8.4H8.61H8.52H8.43H8.35H8.26H8.17v0.09v0.09H8.09H8H7.91H7.83H7.74H7.65v0.09v0.09H7.56H7.48H7.39H7.3v0.09v0.09
	H7.22H7.13v0.09v0.09H7.04H6.96H6.87H6.78v0.09v0.09H6.7H6.61H6.52H6.43v0.09v0.09H6.35H6.26v0.09v0.09H6.17H6.09H6H5.91v0.09v0.09
	H5.83H5.74V9.9v0.09H5.65H5.57v0.09v0.09H5.48H5.39v0.09v0.09H5.3H5.22v0.09v0.09H5.13H5.04v0.09v0.09H4.96H4.87v0.09v0.09H4.78H4.7
	v0.09v0.09H4.61H4.52v0.09v0.09H4.44H4.35v0.09v0.09H4.26H4.17v0.09v0.09H4.09H4v0.09v0.09v0.09v0.09H3.91H3.83v0.09v0.09H3.74H3.65
	v0.09v0.09v0.09v0.09H3.57H3.48v0.09v0.09H3.39H3.31v0.09v0.09v0.09v0.09H3.22H3.13v0.09v0.09H3.05H2.96v0.09v0.09v0.09v0.09H2.87
	H2.78v0.09v0.09v0.09v0.09H2.7H2.61v0.09v0.09H2.52H2.44v0.09v0.09v0.09v0.09H2.35H2.26v0.09v0.09v0.09v0.09H2.18H2.09v0.09v0.09
	v0.09v0.09v0.09v0.09H2H1.92v0.09v0.09v0.09v0.09v0.09v0.09H1.83H1.74v0.09v0.09v0.09v0.09v0.09v0.09v0.09v0.09H1.65H1.57v0.09v0.09
	v0.09v0.09v0.09v0.09v0.09v0.09v0.09v0.09v0.09v0.09v0.09v0.09v0.09v0.09v0.09v0.09h0.09h0.09v0.09v0.09v0.09v0.09v0.09v0.09v0.09
	v0.09h0.09h0.09v0.09V19v0.09v0.09v0.09v0.09v0.09v0.09H2h0.09v0.09v0.09v0.09v0.09h0.09h0.09v0.09v0.09v0.09v0.09h0.09h0.09v0.09
	v0.09h0.09h0.09v0.09v0.09H2.7h0.09v0.09v0.09h0.09h0.09v0.09v0.09h0.09h0.09v0.09v0.09h0.09h0.09v0.09v0.09h0.09h0.09v0.09v0.09
	h0.09h0.09h0.09h0.09v0.09v0.09h0.09H4h0.09h0.09v0.09v0.09h0.09h0.09h0.09h0.09v0.09V22h0.09H4.7h0.09h0.09h0.09h0.09v0.09v0.09
	h0.09h0.09H5.3h0.09h0.09h0.09h0.09h0.09h0.09h0.09H6h0.09h0.09h0.09h0.09h0.09h0.09h0.09H6.7h0.09h0.09h0.09h0.09h0.09v-0.09V22
	h0.09H7.3h0.09h0.09h0.09h0.09v-0.09v-0.09h0.09h0.09h0.09H8v-0.09v-0.09h0.09h0.09h0.09h0.09v-0.09v-0.09h0.09h0.09h0.09h0.09
	v-0.09v-0.09h0.09h0.09V21.2v-0.09h0.09h0.09v-0.09v-0.09h0.09h0.09v-0.09v-0.09H9.3h0.09h0.09h0.09v-0.09v-0.09h0.09h0.09V20.5
	v-0.09h0.09h0.09v-0.09v-0.09H10h0.09v-0.09v-0.09h0.09h0.09v-0.09v-0.09h0.09h0.09v-0.09V19.7h0.09h0.09v-0.09v-0.09v-0.09v-0.09
	h0.09h0.09v-0.09v-0.09h0.09h0.09v-0.09V19h0.09h0.09v-0.09v-0.09h0.09h0.09v-0.09v-0.09h0.09h0.09v-0.09v-0.09h0.09h0.09v-0.09
	v-0.09h0.09h0.09V18.2v-0.09h0.09H12v-0.09v-0.09h0.09h0.09v-0.09v-0.09h0.09h0.09v-0.09v-0.09h0.09h0.09v-0.09v-0.09h0.09h0.09
	v-0.09v-0.09h0.09h0.09v-0.09v-0.09h0.09h0.09v-0.09v-0.09h0.09h0.09v-0.09V16.7h0.09h0.09v-0.09v-0.09h0.09h0.09h0.09h0.09v-0.09
	v-0.09h0.09h0.09v-0.09v-0.09H14h0.09h0.09h0.09v-0.09v-0.09h0.09h0.09h0.09h0.09h0.09h0.09h0.09h0.09h0.09h0.09h0.09h0.09v0.09
	v0.09h0.09h0.09h0.09h0.09v0.09v0.09h0.09h0.09v0.09v0.09v0.09v0.09h0.09H16v0.09v0.09v0.09v0.09h0.09h0.09v0.09v0.09v0.09v0.09
	h-0.09H16v0.09v0.09v0.09v0.09v0.09v0.09h-0.09h-0.09v0.09v0.09v0.09v0.09h-0.09h-0.09v0.09v0.09h-0.09h-0.09v0.09v0.09v0.09v0.09
	h-0.09H15.3v0.09V19h-0.09h-0.09v0.09v0.09v0.09v0.09h-0.09h-0.09v0.09v0.09h-0.09h-0.09v0.09v0.09v0.09v0.09h-0.09H14.6v0.09v0.09
	v0.09v0.09h-0.09h-0.09v0.09v0.09h-0.09h-0.09v0.09v0.09v0.09v0.09h-0.09h-0.09v0.09v0.09v0.09v0.09H14h-0.09v0.09v0.09v0.09v0.09
	h-0.09h-0.09v0.09v0.09v0.09v0.09v0.09V22h-0.09h-0.09v0.09v0.09v0.09v0.09h-0.09h-0.09v0.09v0.09v0.09v0.09v0.09v0.09H13.3h-0.09
	v0.09v0.09v0.09v0.09v0.09v0.09v0.09v0.09v0.09v0.09v0.09v0.09v0.09v0.09h0.09h0.09v0.09v0.09h0.09h0.09v0.09v0.09v0.09v0.09h0.09
	h0.09h0.09h0.09v0.09v0.09H14h0.09h0.09h0.09v0.09V25h0.09h0.09h0.09h0.09h0.09h0.09h0.09h0.09h0.09h0.09v-0.09v-0.09h0.09h0.09
	h0.09h0.09v-0.09v-0.09h0.09h0.09v-0.09v-0.09h0.09h0.09v-0.09v-0.09h0.09H16v-0.09v-0.09v-0.09v-0.09v-0.09v-0.09h0.09h0.09v-0.09
	v-0.09V23.5v-0.09v-0.09v-0.09h0.09h0.09v-0.09v-0.09v-0.09v-0.09h0.09h0.09v-0.09V22.7v-0.09v-0.09h0.09h0.09v-0.09v-0.09v-0.09
	v-0.09h0.09h0.09v-0.09V22v-0.09v-0.09h0.09h0.09v-0.09v-0.09v-0.09v-0.09h0.09h0.09v-0.09v-0.09h0.09h0.09V21.2v-0.09v-0.09v-0.09
	h0.09h0.09v-0.09v-0.09h0.09h0.09v-0.09v-0.09V20.5v-0.09h0.09h0.09v-0.09v-0.09h0.09h0.09v-0.09v-0.09v-0.09v-0.09h0.09h0.09v-0.09
	V19.7v-0.09v-0.09h0.09h0.09v-0.09v-0.09h0.09h0.09v-0.09v-0.09v-0.09V19v-0.09v-0.09h0.09h0.09v-0.09v-0.09v-0.09v-0.09v-0.09
	v-0.09h0.09h0.09V18.2z"/>
</svg>
