<svg width="12" height="13" viewBox="0 0 12 13" fill="none" xmlns="http://www.w3.org/2000/svg">
<mask id="path-1-inside-1_394_611" fill="white">
<path fill-rule="evenodd" clip-rule="evenodd" d="M8 0.636353H4V2.63635H2V4.63635H0V8.63635H2V10.6364H4V12.6364H8V10.6364H10V8.63635H12V4.63635H10V2.63635H8V0.636353Z"/>
</mask>
<path d="M4 0.636353V-0.363647H3V0.636353H4ZM8 0.636353H9V-0.363647H8V0.636353ZM4 2.63635V3.63635H5V2.63635H4ZM2 2.63635V1.63635H1V2.63635H2ZM2 4.63635V5.63635H3V4.63635H2ZM0 4.63635V3.63635H-1V4.63635H0ZM0 8.63635H-1V9.63635H0V8.63635ZM2 8.63635H3V7.63635H2V8.63635ZM2 10.6364H1V11.6364H2V10.6364ZM4 10.6364H5V9.63635H4V10.6364ZM4 12.6364H3V13.6364H4V12.6364ZM8 12.6364V13.6364H9V12.6364H8ZM8 10.6364V9.63635H7V10.6364H8ZM10 10.6364V11.6364H11V10.6364H10ZM10 8.63635V7.63635H9V8.63635H10ZM12 8.63635V9.63635H13V8.63635H12ZM12 4.63635H13V3.63635H12V4.63635ZM10 4.63635H9V5.63635H10V4.63635ZM10 2.63635H11V1.63635H10V2.63635ZM8 2.63635H7V3.63635H8V2.63635ZM4 1.63635H8V-0.363647H4V1.63635ZM5 2.63635V0.636353H3V2.63635H5ZM4 1.63635H2V3.63635H4V1.63635ZM1 2.63635V4.63635H3V2.63635H1ZM2 3.63635H0V5.63635H2V3.63635ZM-1 4.63635V8.63635H1V4.63635H-1ZM0 9.63635H2V7.63635H0V9.63635ZM1 8.63635V10.6364H3V8.63635H1ZM2 11.6364H4V9.63635H2V11.6364ZM5 12.6364V10.6364H3V12.6364H5ZM8 11.6364H4V13.6364H8V11.6364ZM7 10.6364V12.6364H9V10.6364H7ZM8 11.6364H10V9.63635H8V11.6364ZM11 10.6364V8.63635H9V10.6364H11ZM10 9.63635H12V7.63635H10V9.63635ZM13 8.63635V4.63635H11V8.63635H13ZM12 3.63635H10V5.63635H12V3.63635ZM11 4.63635V2.63635H9V4.63635H11ZM10 1.63635H8V3.63635H10V1.63635ZM7 0.636353V2.63635H9V0.636353H7Z" fill="white" mask="url(#path-1-inside-1_394_611)"/>
</svg>
