<svg width="176" height="106" viewBox="0 0 176 106" fill="none" xmlns="http://www.w3.org/2000/svg">
<path d="M175.473 6.42426H174.946V5.8889V5.35355V4.8182V4.28284H174.419H173.892V3.74749V3.21214H173.365H172.838V2.67678V2.14143H172.311H171.784V1.60608V1.07072H171.257H170.73H170.204H169.677V0.535369V1.52588e-05H169.15H168.623H168.096H167.569H167.042H166.515H165.988H165.461H164.934H164.407V0.535369V1.07072H163.88H163.353H162.826H162.299V1.60608V2.14143H161.772H161.245V2.67678V3.21214H160.719H160.192V3.74749V4.28284H159.665H159.138V4.8182V5.35355V5.8889V6.42426H158.611H158.084V6.95961V7.49496V8.03032V8.56567V9.10102V9.63638H157.557H157.03V10.1717V10.7071V11.2424V11.7778H156.503H155.976V12.3131V12.8485V13.3839V13.9192H155.449H154.922V14.4546V14.9899V15.5253V16.0606H154.395H153.868V16.596V17.1313H153.341H152.814V17.6667V18.202V18.7374V19.2727H152.287H151.76V19.8081V20.3434V20.8788V21.4142H151.233H150.707V21.9495V22.4849V23.0202V23.5556H150.18H149.653V24.0909V24.6263V25.1616V25.697H149.126H148.599V26.2323V26.7677V27.303V27.8384H148.072H147.545V28.3737V28.9091H147.018H146.491V29.4445V29.9798V30.5152V31.0505H145.964H145.437V31.5859V32.1212H144.91H144.383V32.6566V33.1919V33.7273V34.2626H143.856H143.329V34.798V35.3333H142.802H142.275V35.8687V36.4041V36.9394V37.4748H141.748H141.222V38.0101V38.5455H140.695H140.168V39.0808V39.6162V40.1515V40.6869H139.641H139.114V41.2222V41.7576H138.587H138.06V42.2929V42.8283V43.3636V43.899H137.533H137.006V44.4344V44.9697H136.479H135.952V45.5051V46.0404H135.425H134.898V46.5758V47.1111V47.6465V48.1818H134.371H133.844V48.7172V49.2525H133.317H132.79V49.7879V50.3232V50.8586V51.3939H132.263H131.736V51.9293V52.4647H131.21H130.683V53V53.5354H130.156H129.629V54.0707V54.6061V55.1414V55.6768H129.102H128.575V56.2121V56.7475H128.048H127.521V57.2828V57.8182H126.994H126.467V58.3535V58.8889V59.4243V59.9596H125.94H125.413V60.495V61.0303H124.886H124.359V61.5657V62.101H123.832H123.305V62.6364V63.1717V63.7071V64.2424H122.778H122.251V64.7778V65.3131H121.724H121.198V65.8485V66.3838V66.9192V67.4546H120.671H120.144V67.9899V68.5253H119.617H119.09V69.0606V69.596V70.1313V70.6667H118.563H118.036V71.202V71.7374H117.509H116.982V72.2727V72.8081V73.3434V73.8788H116.455H115.928V74.4141V74.9495H115.401H114.874V75.4849V76.0202V76.5556V77.0909H114.347H113.82V77.6263V78.1616H113.293H112.766V78.697V79.2323V79.7677V80.303H112.239H111.713V80.8384V81.3737H111.186H110.659V81.9091V82.4445V82.9798V83.5152H110.132H109.605V84.0505V84.5859V85.1212V85.6566H109.078H108.551V86.1919V86.7273V87.2626V87.798H108.024H107.497V88.3333V88.8687V89.404V89.9394V90.4748V91.0101H106.97H106.443V91.5455V92.0808V92.6162V93.1515V93.6869V94.2222H105.916H105.389V94.7576V95.2929V95.8283V96.3636V96.899V97.4343V97.9697V98.5051V99.0404V99.5758V100.111V100.646H105.916H106.443V101.182V101.717H106.97H107.497V102.253V102.788V103.323V103.859H108.024H108.551H109.078H109.605V104.394V104.929H110.132H110.659H111.186H111.713V105.465V106H112.239H112.766H113.293H113.82H114.347H114.874H115.401H115.928H116.455H116.982V105.465V104.929H117.509H118.036H118.563H119.09V104.394V103.859H119.617H120.144V103.323V102.788H120.671H121.198V102.253V101.717H121.724H122.251V101.182V100.646V100.111V99.5758H122.778H123.305V99.0404V98.5051V97.9697V97.4343V96.899V96.3636H123.832H124.359V95.8283V95.2929V94.7576V94.2222H124.886H125.413V93.6869V93.1515V92.6162V92.0808H125.94H126.467V91.5455V91.0101V90.4748V89.9394H126.994H127.521V89.404V88.8687V88.3333V87.798H128.048H128.575V87.2626V86.7273H129.102H129.629V86.1919V85.6566V85.1212V84.5859H130.156H130.683V84.0505V83.5152H131.21H131.736V82.9798V82.4445V81.9091V81.3737H132.263H132.79V80.8384V80.303H133.317H133.844V79.7677V79.2323V78.697V78.1616H134.371H134.898V77.6263V77.0909H135.425H135.952V76.5556V76.0202V75.4849V74.9495H136.479H137.006V74.4141V73.8788H137.533H138.06V73.3434V72.8081V72.2727V71.7374H138.587H139.114V71.202V70.6667H139.641H140.168V70.1313V69.596H140.695H141.222V69.0606V68.5253V67.9899V67.4546H141.748H142.275V66.9192V66.3838H142.802H143.329V65.8485V65.3131H143.856H144.383V64.7778V64.2424H144.91H145.437V63.7071V63.1717V62.6364V62.101H145.964H146.491V61.5657V61.0303H147.018H147.545V60.495V59.9596V59.4243V58.8889H148.072H148.599V58.3535V57.8182H149.126H149.653V57.2828V56.7475H150.18H150.707V56.2121V55.6768V55.1414V54.6061H151.233H151.76V54.0707V53.5354H152.287H152.814V53V52.4647V51.9293V51.3939H153.341H153.868V50.8586V50.3232H154.395H154.922V49.7879V49.2525V48.7172V48.1818H155.449H155.976V47.6465V47.1111H156.503H157.03V46.5758V46.0404V45.5051V44.9697H157.557H158.084V44.4344V43.899V43.3636V42.8283H158.611H159.138V42.2929V41.7576H159.665H160.192V41.2222V40.6869H160.719H161.245V40.1515V39.6162V39.0808V38.5455H161.772H162.299V38.0101V37.4748H162.826H163.353V36.9394V36.4041V35.8687V35.3333H163.88H164.407V34.798V34.2626V33.7273V33.1919H164.934H165.461V32.6566V32.1212V31.5859V31.0505H165.988H166.515V30.5152V29.9798H167.042H167.569V29.4445V28.9091V28.3737V27.8384H168.096H168.623V27.303V26.7677V26.2323V25.697H169.15H169.677V25.1616V24.6263V24.0909V23.5556H170.204H170.73V23.0202V22.4849V21.9495V21.4142H171.257H171.784V20.8788V20.3434V19.8081V19.2727H172.311H172.838V18.7374V18.202V17.6667V17.1313H173.365H173.892V16.596V16.0606V15.5253V14.9899V14.4546V13.9192H174.419H174.946V13.3839V12.8485V12.3131V11.7778H175.473H176V11.2424V10.7071V10.1717V9.63638V9.10102V8.56567V8.03032V7.49496V6.95961V6.42426H175.473Z" fill="white"/>
<path d="M105.389 64.7778V64.2424V63.7071V63.1717V62.6364V62.101V61.5657V61.0303V60.4949V59.9596V59.4242V58.8889V58.3535V57.8182V57.2828V56.7475V56.2121V55.6768V55.1414V54.6061V54.0707V53.5353V53V52.4646H104.862H104.335V51.9293V51.3939V50.8586V50.3232V49.7879V49.2525H103.808H103.281V48.7172V48.1818V47.6465V47.1111H102.754H102.228V46.5758V46.0404V45.505V44.9697H101.701H101.174V44.4343V43.899H100.647H100.12V43.3636V42.8283H99.5928H99.0659V42.2929V41.7576H98.5389H98.012V41.2222V40.6869H97.485H96.9581V40.1515V39.6162H96.4311H95.9042V39.0808V38.5455H95.3772H94.8503V38.0101V37.4747H94.3234H93.7964H93.2695H92.7425V36.9394V36.404H92.2156H91.6886H91.1617H90.6347V35.8687V35.3333H90.1078H89.5808H89.0539H88.5269V34.798V34.2626H88H87.4731H86.9461H86.4192H85.8922H85.3653H84.8383H84.3114H83.7844H83.2575H82.7305H82.2036H81.6766H81.1497H80.6228H80.0958H79.5689H79.0419H78.515H77.988H77.4611H76.9341H76.4072H75.8802H75.3533H74.8264H74.2994H73.7725H73.2455H72.7186H72.1916H71.6647V34.798V35.3333H71.1377H70.6108H70.0838H69.5569H69.0299H68.503V35.8687V36.404H67.9761H67.4491H66.9222H66.3952V36.9394V37.4747H65.8683H65.3413H64.8144H64.2874V38.0101V38.5455H63.7605H63.2335H62.7066H62.1796V39.0808V39.6162H61.6527H61.1258V40.1515V40.6869H60.5988H60.0719V41.2222V41.7576H59.5449H59.018V42.2929V42.8283H58.491H57.9641V43.3636V43.899H57.4371H56.9102V44.4343V44.9697H56.3832H55.8563V45.505V46.0404H55.3293H54.8024V46.5758V47.1111H54.2755H53.7485V47.6465V48.1818H53.2216H52.6946V48.7172V49.2525H52.1677H51.6407V49.7879V50.3232H51.1138H50.5868V50.8586V51.3939H50.0599H49.5329V51.9293V52.4646H49.006H48.479V53V53.5353H47.9521H47.4252V54.0707V54.6061H46.8982H46.3713V55.1414V55.6768V56.2121V56.7475H45.8443H45.3174V57.2828V57.8182H44.7904H44.2635V58.3535V58.8889H43.7365H43.2096V59.4242V59.9596H42.6826H42.1557V60.4949V61.0303H41.6287H41.1018V61.5657V62.101H40.5749H40.0479V62.6364V63.1717H39.521H38.994V63.7071V64.2424H38.4671H37.9401V64.7778V65.3131H37.4132H36.8862V65.8485V66.3838H36.3593H35.8323V66.9192V67.4545H35.3054H34.7784H34.2515H33.7246V67.9899V68.5252H33.1976H32.6707V69.0606V69.596H32.1437H31.6168H31.0898H30.5629V70.1313V70.6667H30.0359H29.509H28.982H28.4551H27.9281H27.4012H26.8743H26.3473H25.8204H25.2934H24.7665H24.2395H23.7126H23.1856V70.1313V69.596H22.6587H22.1317V69.0606V68.5252H21.6048H21.0778V67.9899V67.4545H20.5509H20.024V66.9192V66.3838H19.497H18.9701V65.8485V65.3131V64.7778V64.2424H18.4431H17.9162V63.7071V63.1717V62.6364V62.101V61.5657V61.0303V60.4949V59.9596V59.4242V58.8889V58.3535V57.8182V57.2828V56.7475V56.2121V55.6768H18.4431H18.9701V55.1414V54.6061V54.0707V53.5353V53V52.4646H19.497H20.024V51.9293V51.3939V50.8586V50.3232H20.5509H21.0778V49.7879V49.2525V48.7172V48.1818H21.6048H22.1317V47.6465V47.1111V46.5758V46.0404H22.6587H23.1856V45.505V44.9697V44.4343V43.899H23.7126H24.2395V43.3636V42.8283H24.7665H25.2934V42.2929V41.7576V41.2222V40.6869H25.8204H26.3473V40.1515V39.6162H26.8743H27.4012V39.0808V38.5455H27.9281H28.4551V38.0101V37.4747H28.982H29.509V36.9394V36.404V35.8687V35.3333H30.0359H30.5629V34.798V34.2626H31.0898H31.6168V33.7273V33.1919H32.1437H32.6707V32.6566V32.1212H33.1976H33.7246H34.2515H34.7784V31.5859V31.0505H35.3054H35.8323V30.5151V29.9798H36.3593H36.8862V29.4444V28.9091H37.4132H37.9401V28.3737V27.8384H38.4671H38.994H39.521H40.0479V27.303V26.7677H40.5749H41.1018V26.2323V25.697H41.6287H42.1557H42.6826H43.2096V25.1616V24.6263H43.7365H44.2635H44.7904H45.3174V24.0909V23.5556H45.8443H46.3713H46.8982H47.4252V23.0202V22.4848H47.9521H48.479H49.006H49.5329V21.9495V21.4141H50.0599H50.5868H51.1138H51.6407H52.1677H52.6946V20.8788V20.3434H53.2216H53.7485H54.2755H54.8024H55.3293H55.8563V19.8081V19.2727H56.3832H56.9102H57.4371H57.9641H58.491H59.018H59.5449H60.0719H60.5988H61.1258V18.7374V18.202H61.6527H62.1796H62.7066H63.2335H63.7605H64.2874H64.8144H65.3413H65.8683H66.3952H66.9222H67.4491H67.9761H68.503H69.0299H69.5569H70.0838H70.6108H71.1377H71.6647H72.1916H72.7186H73.2455H73.7725H74.2994H74.8264V17.6667V17.1313H75.3533H75.8802H76.4072H76.9341V16.596V16.0606H77.4611H77.988V15.5253V14.9899H78.515H79.0419V14.4545V13.9192H79.5689H80.0958V13.3838V12.8485V12.3131V11.7778H80.6228H81.1497V11.2424V10.7071V10.1717V9.63636V9.10101V8.56566V8.0303V7.49495V6.9596V6.42424H80.6228H80.0958V5.88889V5.35353V4.81818V4.28283H79.5689H79.0419V3.74747V3.21212H78.515H77.988V2.67677V2.14141H77.4611H76.9341V1.60606V1.07071H76.4072H75.8802H75.3533H74.8264V0.535353V0H74.2994H73.7725H73.2455H72.7186H72.1916H71.6647H71.1377H70.6108H70.0838H69.5569H69.0299H68.503H67.9761H67.4491H66.9222H66.3952H65.8683H65.3413H64.8144H64.2874H63.7605H63.2335H62.7066H62.1796H61.6527H61.1258V0.535353V1.07071H60.5988H60.0719H59.5449H59.018H58.491H57.9641H57.4371H56.9102H56.3832H55.8563H55.3293H54.8024V1.60606V2.14141H54.2755H53.7485H53.2216H52.6946H52.1677H51.6407H51.1138H50.5868V2.67677V3.21212H50.0599H49.5329H49.006H48.479H47.9521H47.4252H46.8982H46.3713V3.74747V4.28283H45.8443H45.3174H44.7904H44.2635H43.7365H43.2096V4.81818V5.35353H42.6826H42.1557H41.6287H41.1018H40.5749H40.0479V5.88889V6.42424H39.521H38.994H38.4671H37.9401H37.4132H36.8862V6.9596V7.49495H36.3593H35.8323H35.3054H34.7784V8.0303V8.56566H34.2515H33.7246V9.10101V9.63636H33.1976H32.6707H32.1437H31.6168V10.1717V10.7071H31.0898H30.5629H30.0359H29.509V11.2424V11.7778H28.982H28.4551V12.3131V12.8485H27.9281H27.4012H26.8743H26.3473V13.3838V13.9192H25.8204H25.2934V14.4545V14.9899H24.7665H24.2395V15.5253V16.0606H23.7126H23.1856V16.596V17.1313H22.6587H22.1317V17.6667V18.202H21.6048H21.0778V18.7374V19.2727H20.5509H20.024V19.8081V20.3434H19.497H18.9701V20.8788V21.4141H18.4431H17.9162V21.9495V22.4848H17.3892H16.8623V23.0202V23.5556H16.3353H15.8084V24.0909V24.6263H15.2814H14.7545V25.1616V25.697V26.2323V26.7677H14.2275H13.7006V27.303V27.8384H13.1737H12.6467V28.3737V28.9091V29.4444V29.9798H12.1198H11.5928V30.5151V31.0505H11.0659H10.5389V31.5859V32.1212V32.6566V33.1919H10.012H9.48503V33.7273V34.2626H8.95808H8.43114V34.798V35.3333V35.8687V36.404H7.90419H7.37725V36.9394V37.4747V38.0101V38.5455H6.8503H6.32335V39.0808V39.6162H5.79641H5.26946V40.1515V40.6869V41.2222V41.7576H4.74252H4.21557V42.2929V42.8283V43.3636V43.899H3.68862H3.16168V44.4343V44.9697V45.505V46.0404V46.5758V47.1111H2.63473H2.10778V47.6465V48.1818V48.7172V49.2525V49.7879V50.3232H1.58084H1.05389V50.8586V51.3939V51.9293V52.4646V53V53.5353V54.0707V54.6061H0.526946H0V55.1414V55.6768V56.2121V56.7475V57.2828V57.8182V58.3535V58.8889V59.4242V59.9596V60.4949V61.0303V61.5657V62.101V62.6364V63.1717V63.7071V64.2424H0.526946H1.05389V64.7778V65.3131V65.8485V66.3838V66.9192V67.4545V67.9899V68.5252H1.58084H2.10778V69.0606V69.596V70.1313V70.6667V71.202V71.7374V72.2727V72.8081H2.63473H3.16168V73.3434V73.8788V74.4141V74.9495H3.68862H4.21557V75.4848V76.0202V76.5555V77.0909H4.74252H5.26946V77.6263V78.1616H5.79641H6.32335V78.697V79.2323H6.8503H7.37725V79.7677V80.303H7.90419H8.43114V80.8384V81.3737H8.95808H9.48503V81.9091V82.4444H10.012H10.5389V82.9798V83.5151H11.0659H11.5928V84.0505V84.5859H12.1198H12.6467H13.1737H13.7006V85.1212V85.6566H14.2275H14.7545H15.2814H15.8084V86.1919V86.7273H16.3353H16.8623H17.3892H17.9162V87.2626V87.798H18.4431H18.9701H19.497H20.024H20.5509H21.0778V88.3333V88.8687H21.6048H22.1317H22.6587H23.1856H23.7126H24.2395H24.7665H25.2934H25.8204H26.3473H26.8743H27.4012H27.9281H28.4551H28.982H29.509H30.0359H30.5629H31.0898H31.6168H32.1437H32.6707H33.1976H33.7246V88.3333V87.798H34.2515H34.7784H35.3054H35.8323H36.3593H36.8862V87.2626V86.7273H37.4132H37.9401H38.4671H38.994V86.1919V85.6566H39.521H40.0479H40.5749H41.1018V85.1212V84.5859H41.6287H42.1557H42.6826H43.2096V84.0505V83.5151H43.7365H44.2635V82.9798V82.4444H44.7904H45.3174V81.9091V81.3737H45.8443H46.3713V80.8384V80.303H46.8982H47.4252H47.9521H48.479V79.7677V79.2323H49.006H49.5329V78.697V78.1616H50.0599H50.5868V77.6263V77.0909H51.1138H51.6407V76.5555V76.0202H52.1677H52.6946V75.4848V74.9495H53.2216H53.7485V74.4141V73.8788H54.2755H54.8024V73.3434V72.8081V72.2727V71.7374H55.3293H55.8563V71.202V70.6667H56.3832H56.9102V70.1313V69.596H57.4371H57.9641V69.0606V68.5252H58.491H59.018V67.9899V67.4545H59.5449H60.0719V66.9192V66.3838H60.5988H61.1258V65.8485V65.3131H61.6527H62.1796V64.7778V64.2424H62.7066H63.2335V63.7071V63.1717H63.7605H64.2874V62.6364V62.101H64.8144H65.3413V61.5657V61.0303H65.8683H66.3952V60.4949V59.9596H66.9222H67.4491V59.4242V58.8889H67.9761H68.503V58.3535V57.8182H69.0299H69.5569V57.2828V56.7475H70.0838H70.6108V56.2121V55.6768H71.1377H71.6647V55.1414V54.6061H72.1916H72.7186H73.2455H73.7725V54.0707V53.5353H74.2994H74.8264V53V52.4646H75.3533H75.8802H76.4072H76.9341V51.9293V51.3939H77.4611H77.988H78.515H79.0419H79.5689H80.0958H80.6228H81.1497H81.6766H82.2036H82.7305H83.2575V51.9293V52.4646H83.7844H84.3114H84.8383H85.3653V53V53.5353H85.8922H86.4192V54.0707V54.6061V55.1414V55.6768H86.9461H87.4731V56.2121V56.7475V57.2828V57.8182H88H88.5269V58.3535V58.8889V59.4242V59.9596H88H87.4731V60.4949V61.0303V61.5657V62.101V62.6364V63.1717H86.9461H86.4192V63.7071V64.2424V64.7778V65.3131H85.8922H85.3653V65.8485V66.3838H84.8383H84.3114V66.9192V67.4545V67.9899V68.5252H83.7844H83.2575V69.0606V69.596H82.7305H82.2036V70.1313V70.6667V71.202V71.7374H81.6766H81.1497V72.2727V72.8081H80.6228H80.0958V73.3434V73.8788V74.4141V74.9495H79.5689H79.0419V75.4848V76.0202V76.5555V77.0909H78.515H77.988V77.6263V78.1616H77.4611H76.9341V78.697V79.2323V79.7677V80.303H76.4072H75.8802V80.8384V81.3737V81.9091V82.4444H75.3533H74.8264V82.9798V83.5151V84.0505V84.5859H74.2994H73.7725V85.1212V85.6566V86.1919V86.7273V87.2626V87.798H73.2455H72.7186V88.3333V88.8687V89.404V89.9394H72.1916H71.6647V90.4747V91.0101V91.5454V92.0808V92.6162V93.1515H71.1377H70.6108V93.6869V94.2222V94.7576V95.2929V95.8283V96.3636V96.899V97.4343V97.9697V98.505V99.0404V99.5757V100.111V100.646H71.1377H71.6647V101.182V101.717H72.1916H72.7186V102.253V102.788V103.323V103.859H73.2455H73.7725H74.2994H74.8264V104.394V104.929H75.3533H75.8802H76.4072H76.9341V105.465V106H77.4611H77.988H78.515H79.0419H79.5689H80.0958H80.6228H81.1497H81.6766H82.2036V105.465V104.929H82.7305H83.2575H83.7844H84.3114V104.394V103.859H84.8383H85.3653V103.323V102.788H85.8922H86.4192V102.253V101.717H86.9461H87.4731V101.182V100.646V100.111V99.5757V99.0404V98.505H88H88.5269V97.9697V97.4343V96.899V96.3636V95.8283V95.2929H89.0539H89.5808V94.7576V94.2222V93.6869V93.1515H90.1078H90.6347V92.6162V92.0808V91.5454V91.0101H91.1617H91.6886V90.4747V89.9394V89.404V88.8687H92.2156H92.7425V88.3333V87.798V87.2626V86.7273H93.2695H93.7964V86.1919V85.6566V85.1212V84.5859H94.3234H94.8503V84.0505V83.5151H95.3772H95.9042V82.9798V82.4444V81.9091V81.3737H96.4311H96.9581V80.8384V80.303H97.485H98.012V79.7677V79.2323V78.697V78.1616H98.5389H99.0659V77.6263V77.0909H99.5928H100.12V76.5555V76.0202V75.4848V74.9495H100.647H101.174V74.4141V73.8788V73.3434V72.8081H101.701H102.228V72.2727V71.7374H102.754H103.281V71.202V70.6667V70.1313V69.596V69.0606V68.5252H103.808H104.335V67.9899V67.4545V66.9192V66.3838V65.8485V65.3131H104.862H105.389V64.7778Z" fill="white"/>
</svg>
